<?xml version="1.0" encoding="UTF-8" standalone="no" ?>
<!DOCTYPE svg PUBLIC "-//W3C//DTD SVG 1.1//EN" "http://www.w3.org/Graphics/SVG/1.1/DTD/svg11.dtd">
<svg xmlns="http://www.w3.org/2000/svg" xmlns:xlink="http://www.w3.org/1999/xlink" version="1.1" width="1280" height="1024" viewBox="0 0 1280 1024" xml:space="preserve">
<desc>Created with Fabric.js 5.3.0</desc>
<defs>
</defs>
<g transform="matrix(1 0 0 1 640 512)" id="background-logo"  >
<rect style="stroke: none; stroke-width: 0; stroke-dasharray: none; stroke-linecap: butt; stroke-dashoffset: 0; stroke-linejoin: miter; stroke-miterlimit: 4; fill: rgb(255,255,255); fill-opacity: 0; fill-rule: nonzero; opacity: 1;"  paint-order="stroke"  x="-640" y="-512" rx="0" ry="0" width="1280" height="1024" />
</g>
<g transform="matrix(1.9211538461538462 0 0 1.9211538461538462 640 352.2435402707696)" id="logo-logo"  >
<g style=""  paint-order="stroke"   >
		<g transform="matrix(0.25836339131142233 0 0 -0.25836339131142233 0.6251148407403662 9.820082467677622)"  >
<path style="stroke: none; stroke-width: 1; stroke-dasharray: none; stroke-linecap: butt; stroke-dashoffset: 0; stroke-linejoin: miter; stroke-miterlimit: 4; fill: rgb(234,205,16); fill-rule: nonzero; opacity: 1;"  paint-order="stroke"  transform=" translate(0.0014999999999929514, -27.0445)" d="M 0 0 C -61.88 0 -112.61 48.6 -116.058 109.633 L -171.635 109.633 C -168.136 17.964 -92.51 -55.544 0 -55.544 C 92.51 -55.544 168.133 17.964 171.632 109.633 L 116.056 109.633 C 112.608 48.6 61.88 0 0 0" stroke-linecap="round" />
</g>
		<g transform="matrix(0.25836339131142233 0 0 -0.25836339131142233 7.397000181386716 -95.3753884657333)"  >
<path style="stroke: none; stroke-width: 1; stroke-dasharray: none; stroke-linecap: butt; stroke-dashoffset: 0; stroke-linejoin: miter; stroke-miterlimit: 4; fill: rgb(83,113,255); fill-rule: nonzero; opacity: 1;"  paint-order="stroke"  transform=" translate(-0.582, 0.07)" d="M 0 0 C 0.388 -0.048 0.776 -0.089 1.164 -0.14 C 0.776 -0.089 0.388 -0.048 0 0" stroke-linecap="round" />
</g>
		<g transform="matrix(0.25836339131142233 0 0 -0.25836339131142233 0 0)"  >
<path style="stroke: none; stroke-width: 1; stroke-dasharray: none; stroke-linecap: butt; stroke-dashoffset: 0; stroke-linejoin: miter; stroke-miterlimit: 4; fill: rgb(83,113,255); fill-rule: nonzero; opacity: 1;"  paint-order="stroke"  transform=" translate(347.3885178642272, -445.659)" d="M 0 0 L -210.572 0 C -224.223 54.807 -261.254 100.035 -312.237 124.17 L -312.237 153.714 C -312.237 162.652 -319.51000000000005 169.924 -328.44800000000004 169.924 C -337.38700000000006 169.924 -344.65900000000005 162.65200000000002 -344.65900000000005 153.714 L -344.65900000000005 135.983 C -373.90000000000003 143.687 -404.91100000000006 144.256 -434.41300000000007 137.62800000000001 L -600.495 370.14 C -630.135 411.633 -625.475 467.921 -589.415 503.981 L -545.612 547.784 C -537.611 520.924 -526.6759999999999 503.291 -520.116 492.71299999999997 L -518.627 490.30499999999995 L -461.49699999999996 490.30499999999995 C -457.77399999999994 428.79099999999994 -406.67999999999995 380.67299999999994 -344.96799999999996 380.67299999999994 C -283.256 380.67299999999994 -232.16299999999995 428.79099999999994 -228.43899999999996 490.30499999999995 L -171.31099999999998 490.30499999999995 L -171.164 490.54299999999995 C -134.178 550.6089999999999 -125.92099999999999 617.3489999999999 -147.914 678.4689999999999 C -169.23999999999998 737.7349999999999 -217.61199999999997 785.2879999999999 -277.352 805.7359999999999 L -277.352 878.3859999999999 C -277.352 903.3939999999999 -297.698 923.7399999999999 -322.707 923.7399999999999 L -367.23 923.7399999999999 C -392.237 923.7399999999999 -412.583 903.3939999999999 -412.583 878.3859999999999 L -412.583 805.7609999999999 C -441.55100000000004 795.8419999999999 -468.57000000000005 779.2259999999999 -490.73400000000004 757.6939999999998 C -512.894 736.1689999999999 -530.2900000000001 709.6519999999998 -541.049 681.0039999999999 C -569.678 652.3759999999999 -591.134 630.925 -607.257 614.8059999999999 C -656.0379999999999 566.0389999999999 -656.0379999999999 566.0389999999999 -658.346 563.5239999999999 L -659.004 562.8089999999999 C -689.413 529.9859999999999 -707.734 487.4499999999999 -710.5930000000001 443.03699999999986 C -713.46 398.5099999999999 -700.6490000000001 353.84199999999987 -674.522 317.26099999999985 L -516.446 95.958 C -545.563 70.57 -565.862 37.405 -575.179 0 L -690.053 0 C -698.992 0 -706.264 -7.272 -706.264 -16.211 C -706.264 -25.149 -698.992 -32.422 -690.053 -32.422 L 0 -32.422 C 8.938 -32.422 16.211 -25.148999999999997 16.211 -16.211 C 16.211 -7.272 8.938 0 0 0" stroke-linecap="round" />
</g>
		<g transform="matrix(0.25836339131142233 0 0 -0.25836339131142233 -59.790462895970165 19.786631141889586)"  >
<path style="stroke: none; stroke-width: 1; stroke-dasharray: none; stroke-linecap: butt; stroke-dashoffset: 0; stroke-linejoin: miter; stroke-miterlimit: 4; fill: rgb(83,113,255); fill-rule: nonzero; opacity: 1;"  paint-order="stroke"  transform=" translate(100.26144448828099, -247.98600000000002)" d="M 0 0 L -153.377 214.727 C -199.863 279.81 -192.556 368.095 -136.00300000000001 424.649 L -75.30700000000002 485.346 C -75.30900000000001 485.742 -75.32200000000002 486.138 -75.32200000000002 486.534 C -75.32200000000002 491.964 -75.04800000000002 497.327 -74.63900000000001 502.654 L -152.64300000000003 424.649 C -209.19600000000003 368.095 -216.50300000000004 279.81 -170.01700000000002 214.727 L -11.867 -6.682 C -7.993 -4.325 -4.038 -2.091 0 0" stroke-linecap="round" />
</g>
		<g transform="matrix(0.25836339131142233 0 0 -0.25836339131142233 -56.02575620072378 21.159290003588097)"  >
<path style="stroke: none; stroke-width: 1; stroke-dasharray: none; stroke-linecap: butt; stroke-dashoffset: 0; stroke-linejoin: miter; stroke-miterlimit: 4; fill: rgb(83,113,255); fill-rule: nonzero; opacity: 1;"  paint-order="stroke"  transform=" translate(-67.68721825834169, -27.945999999999998)" d="M 0 0 L 153.377 -214.727 C 157.458 -212.614 161.62400000000002 -210.647 165.88 -208.851 L 5.436 15.769 C -33.311 70.014 -27.22 143.598 19.918 190.737 L 79.193 250.012 C 78.48 256.836 78.11 263.713 78.071 270.619 L 17.374 209.922 C -39.178 153.368 -46.486 65.083 0 0" stroke-linecap="round" />
</g>
		<g transform="matrix(0.25836339131142233 0 0 -0.25836339131142233 3.9300735060569423 -1.6867770728548521)"  >
<path style="stroke: none; stroke-width: 1; stroke-dasharray: none; stroke-linecap: butt; stroke-dashoffset: 0; stroke-linejoin: miter; stroke-miterlimit: 4; fill: rgb(252,248,217); fill-rule: nonzero; opacity: 1;"  paint-order="stroke"  transform=" translate(71.7435, 38.6175)" d="M 0 0 L -143.487 0 C -140.424 -39.42 -110.318 -71.364 -71.743 -77.235 C -33.17 -71.364 -3.063 -39.42 0 0" stroke-linecap="round" />
</g>
		<g transform="matrix(0.25836339131142233 0 0 -0.25836339131142233 0.18605209354569752 -105.14299732863557)"  >
<path style="stroke: none; stroke-width: 1; stroke-dasharray: none; stroke-linecap: butt; stroke-dashoffset: 0; stroke-linejoin: miter; stroke-miterlimit: 4; fill: rgb(83,113,255); fill-rule: nonzero; opacity: 1;"  paint-order="stroke"  transform=" translate(-25.810499999999998, -37.951499999999996)" d="M 0 0 C 0.265 0.035 0.53 0.077 0.795 0.112 C 2 0.268 3.203 0.406 4.406 0.541 C 4.697 0.573 4.988 0.613 5.279 0.644 C 6.169 0.74 7.057 0.819 7.946 0.903 C 8.55 0.961 9.155 1.027 9.758 1.079 C 10.497 1.143 11.235 1.19 11.972999999999999 1.246 C 12.725 1.302 13.476999999999999 1.367 14.227999999999998 1.415 C 15.033999999999999 1.467 15.837999999999997 1.502 16.642999999999997 1.544 C 17.324999999999996 1.58 18.007999999999996 1.625 18.689999999999998 1.6540000000000001 C 19.589999999999996 1.6920000000000002 20.488999999999997 1.713 21.387999999999998 1.739 C 21.467 1.741 21.546 1.745 21.624 1.747 L 21.624 59.151 C 21.624 66.558 27.649 72.583 35.056 72.583 L 59.821999999999996 72.583 C 57.358999999999995 75.378 53.763 77.15299999999999 49.75299999999999 77.15299999999999 L 5.231 77.15299999999999 C -2.176 77.15299999999999 -8.201 71.12799999999999 -8.201 63.72099999999999 L -8.201 -1.25 C -6.699000000000001 -0.99 -5.198 -0.747 -3.6990000000000007 -0.52 C -2.464 -0.333 -1.232 -0.165 0 0" stroke-linecap="round" />
</g>
		<g transform="matrix(0.25836339131142233 0 0 -0.25836339131142233 -29.01394586541909 100.95399664726875)"  >
<path style="stroke: none; stroke-width: 1; stroke-dasharray: none; stroke-linecap: butt; stroke-dashoffset: 0; stroke-linejoin: miter; stroke-miterlimit: 4; fill: rgb(83,113,255); fill-rule: nonzero; opacity: 1;"  paint-order="stroke"  transform=" translate(82.5905, 54.593)" d="M 0 0 C -5.2 0.521 -10.47 0.791 -15.796 0.791 C -16.878999999999998 0.791 -17.961 0.78 -19.038999999999998 0.757 C -19.933999999999997 0.739 -20.825999999999997 0.709 -21.717999999999996 0.675 C -21.900999999999996 0.669 -22.084999999999997 0.666 -22.266999999999996 0.659 C -47.973 -0.3919999999999999 -72.28999999999999 -7.676000000000001 -93.557 -19.87 C -93.613 -19.902 -93.669 -19.932000000000002 -93.724 -19.964000000000002 C -94.409 -20.358 -95.08800000000001 -20.761000000000003 -95.76700000000001 -21.165000000000003 C -95.971 -21.287000000000003 -96.177 -21.404000000000003 -96.38000000000001 -21.526000000000003 C -96.92800000000001 -21.856 -97.47000000000001 -22.195000000000004 -98.01400000000001 -22.531000000000002 C -98.343 -22.734 -98.674 -22.933000000000003 -99.00200000000001 -23.139000000000003 C -99.43100000000001 -23.409000000000002 -99.855 -23.687000000000005 -100.28200000000001 -23.961000000000002 C -100.71800000000002 -24.241000000000003 -101.156 -24.517000000000003 -101.58900000000001 -24.802000000000003 C -101.88400000000001 -24.995000000000005 -102.17500000000001 -25.196 -102.46900000000001 -25.392000000000003 C -103.02900000000001 -25.765000000000004 -103.59 -26.136000000000003 -104.14500000000001 -26.516000000000002 C -104.28000000000002 -26.609 -104.41300000000001 -26.705000000000002 -104.54800000000002 -26.798000000000002 C -132.174 -45.859 -153.49400000000003 -73.714 -164.229 -106.928 C -164.556 -107.939 -164.87400000000002 -108.956 -165.181 -109.977 L -133.61700000000002 -109.977 C -115.443 -49.556 -62.562 -6.281 0 0" stroke-linecap="round" />
</g>
		<g transform="matrix(0.25836339131142233 0 0 -0.25836339131142233 -7.679459646182693 101.05617936853241)"  >
<path style="stroke: none; stroke-width: 1; stroke-dasharray: none; stroke-linecap: butt; stroke-dashoffset: 0; stroke-linejoin: miter; stroke-miterlimit: 4; fill: rgb(83,113,255); fill-rule: nonzero; opacity: 1;"  paint-order="stroke"  transform=" translate(0.01500000000001478, 54.9885)" d="M 0 0 C -62.562 -6.281 -115.443 -49.556 -133.617 -109.977 L 133.587 -109.977 C 115.482 -49.776 62.832 -6.296 0 0" stroke-linecap="round" />
</g>
		<g transform="matrix(0.25836339131142233 0 0 -0.25836339131142233 -20.375739300845396 -53.73847443019318)"  >
<path style="stroke: none; stroke-width: 1; stroke-dasharray: none; stroke-linecap: butt; stroke-dashoffset: 0; stroke-linejoin: miter; stroke-miterlimit: 4; fill: rgb(247,233,141); fill-rule: nonzero; opacity: 1;"  paint-order="stroke"  transform=" translate(-72.50142875968655, 42.08450000000005)" d="M 0 0 C -0.521 -0.907 -1.051 -1.808 -1.556 -2.724 C -1.562 -2.736 -1.568 -2.748 -1.574 -2.7590000000000003 C -28.365000000000002 -51.397 -32.906 -112.377 -4.736 -167.97000000000003 C -3.7969999999999997 -169.82400000000004 -2.8209999999999997 -171.67200000000003 -1.8089999999999997 -173.51300000000003 L 28.474 -173.51300000000003 C -33.82899999999999 -60.21800000000003 43.122 78.28699999999998 168.869 88.69399999999996 C 163.89 89.11599999999996 158.855 89.34399999999997 153.768 89.34399999999997 C 86.821 89.344 31.881 53.407 1.602 2.757 C 1.481 2.554 1.351 2.354 1.23 2.15 C 0.809 1.44 0.411 0.716 0 0" stroke-linecap="round" />
</g>
		<g transform="matrix(0.25836339131142233 0 0 -0.25836339131142233 7.3921946223082955 -95.3753884657333)"  >
<path style="stroke: none; stroke-width: 1; stroke-dasharray: none; stroke-linecap: butt; stroke-dashoffset: 0; stroke-linejoin: miter; stroke-miterlimit: 4; fill: rgb(83,113,255); fill-rule: nonzero; opacity: 1;"  paint-order="stroke"  transform=" translate(-0.582, 0.07)" d="M 0 0 C 0.388 -0.048 0.776 -0.089 1.164 -0.14 C 0.776 -0.089 0.388 -0.048 0 0" stroke-linecap="round" />
</g>
		<g transform="matrix(0.25836339131142233 0 0 -0.25836339131142233 5.016569075538882 -95.62594928262712)"  >
<path style="stroke: none; stroke-width: 1; stroke-dasharray: none; stroke-linecap: butt; stroke-dashoffset: 0; stroke-linejoin: miter; stroke-miterlimit: 4; fill: rgb(83,113,255); fill-rule: nonzero; opacity: 1;"  paint-order="stroke"  transform=" translate(-0.884, 0.068)" d="M 0 0 C 0.589 -0.047 1.179 -0.084 1.768 -0.136 C 1.179 -0.084 0.589 -0.047 0 0" stroke-linecap="round" />
</g>
		<g transform="matrix(0.25836339131142233 0 0 -0.25836339131142233 6.1875753103188345 -95.51552476918059)"  >
<path style="stroke: none; stroke-width: 1; stroke-dasharray: none; stroke-linecap: butt; stroke-dashoffset: 0; stroke-linejoin: miter; stroke-miterlimit: 4; fill: rgb(83,113,255); fill-rule: nonzero; opacity: 1;"  paint-order="stroke"  transform=" translate(-0.7975, 0.0785)" d="M 0 0 C 0.532 -0.054 1.063 -0.099 1.595 -0.157 C 1.063 -0.099 0.532 -0.054 0 0" stroke-linecap="round" />
</g>
		<g transform="matrix(0.25836339131142233 0 0 -0.25836339131142233 1.5181220664692319 -95.8023856425537)"  >
<path style="stroke: none; stroke-width: 1; stroke-dasharray: none; stroke-linecap: butt; stroke-dashoffset: 0; stroke-linejoin: miter; stroke-miterlimit: 4; fill: rgb(83,113,255); fill-rule: nonzero; opacity: 1;"  paint-order="stroke"  transform=" translate(-1.087, 0.013)" d="M 0 0 C 0.725 -0.009 1.45 -0.01 2.174 -0.026 C 1.45 -0.01 0.725 -0.009 0 0" stroke-linecap="round" />
</g>
		<g transform="matrix(0.25836339131142233 0 0 -0.25836339131142233 3.8447619142459075 -95.71069247497726)"  >
<path style="stroke: none; stroke-width: 1; stroke-dasharray: none; stroke-linecap: butt; stroke-dashoffset: 0; stroke-linejoin: miter; stroke-miterlimit: 4; fill: rgb(83,113,255); fill-rule: nonzero; opacity: 1;"  paint-order="stroke"  transform=" translate(-0.974, 0.054)" d="M 0 0 C 0.649 -0.037 1.299 -0.065 1.948 -0.108 C 1.299 -0.065 0.649 -0.037 0 0" stroke-linecap="round" />
</g>
		<g transform="matrix(0.25836339131142233 0 0 -0.25836339131142233 0.40757286525615655 -95.81034981377346)"  >
<path style="stroke: none; stroke-width: 1; stroke-dasharray: none; stroke-linecap: butt; stroke-dashoffset: 0; stroke-linejoin: miter; stroke-miterlimit: 4; fill: rgb(83,113,255); fill-rule: nonzero; opacity: 1;"  paint-order="stroke"  transform=" translate(-0.9345, -0.009025463233733197)" d="M 0 0 C 0.623 0.005 1.246 0.019 1.869 0.018 C 1.246 0.019 0.623 0.005 0 0" stroke-linecap="round" />
</g>
		<g transform="matrix(0.25836339131142233 0 0 -0.25836339131142233 -0.6987133400002676 -95.79520314027525)"  >
<path style="stroke: none; stroke-width: 1; stroke-dasharray: none; stroke-linecap: butt; stroke-dashoffset: 0; stroke-linejoin: miter; stroke-miterlimit: 4; fill: rgb(83,113,255); fill-rule: nonzero; opacity: 1;"  paint-order="stroke"  transform=" translate(-0.762, -0.024)" d="M 0 0 L 0 0 C 0.508 0.014 1.016 0.038 1.524 0.048 C 1.016 0.038 0.508 0.014 0 0" stroke-linecap="round" />
</g>
		<g transform="matrix(0.25836339131142233 0 0 -0.25836339131142233 2.659106475178703 -95.77006438230069)"  >
<path style="stroke: none; stroke-width: 1; stroke-dasharray: none; stroke-linecap: butt; stroke-dashoffset: 0; stroke-linejoin: miter; stroke-miterlimit: 4; fill: rgb(83,113,255); fill-rule: nonzero; opacity: 1;"  paint-order="stroke"  transform=" translate(-1.118, 0.0375)" d="M 0 0 C 0.745 -0.025 1.491 -0.042 2.236 -0.075 C 1.491 -0.042 0.745 -0.025 0 0" stroke-linecap="round" />
</g>
		<g transform="matrix(0.25836339131142233 0 0 -0.25836339131142233 4.473592572358825 -104.54930409174102)"  >
<path style="stroke: none; stroke-width: 1; stroke-dasharray: none; stroke-linecap: butt; stroke-dashoffset: 0; stroke-linejoin: miter; stroke-miterlimit: 4; fill: rgb(83,113,255); fill-rule: nonzero; opacity: 1;"  paint-order="stroke"  transform=" translate(-20.781499999999998, 23.497)" d="M 0 0 L 0 -57.404 C 0.508 -57.39 1.016 -57.36600000000001 1.524 -57.356 C 2.386 -57.338 3.247 -57.337 4.109 -57.33 C 4.732 -57.324999999999996 5.356 -57.311 5.978 -57.312 C 6.737 -57.312999999999995 7.4959999999999996 -57.33 8.254999999999999 -57.339 C 8.979999999999999 -57.348 9.704999999999998 -57.349 10.428999999999998 -57.365 C 11.166999999999998 -57.382000000000005 11.902999999999999 -57.415 12.639999999999999 -57.440000000000005 C 13.386 -57.465 14.130999999999998 -57.482000000000006 14.876999999999999 -57.51500000000001 C 15.709 -57.55200000000001 16.541 -57.60600000000001 17.374 -57.653000000000006 C 18.023 -57.690000000000005 18.671999999999997 -57.718 19.322 -57.761 C 20.214 -57.82 21.107 -57.896 21.999 -57.967000000000006 C 22.589 -58.014 23.177999999999997 -58.05200000000001 23.767 -58.10300000000001 C 24.718 -58.18700000000001 25.668 -58.287000000000006 26.618 -58.38400000000001 C 27.15 -58.43800000000001 27.680999999999997 -58.483000000000004 28.212999999999997 -58.541000000000004 C 29.307 -58.661 30.400999999999996 -58.798 31.496 -58.935 C 31.884 -58.983000000000004 32.272 -59.024 32.66 -59.074000000000005 C 35.626 -59.462 38.592999999999996 -59.912000000000006 41.562999999999995 -60.426 L 41.562999999999995 4.57 C 41.562999999999995 7.968 40.285 11.065000000000001 38.19799999999999 13.432 L 13.432 13.432 C 6.025 13.432 0 7.407 0 0" stroke-linecap="round" />
</g>
		<g transform="matrix(0.25836339131142233 0 0 -0.25836339131142233 4.511467733290715 -53.6546096733735)"  >
<path style="stroke: none; stroke-width: 1; stroke-dasharray: none; stroke-linecap: butt; stroke-dashoffset: 0; stroke-linejoin: miter; stroke-miterlimit: 4; fill: rgb(245,226,107); fill-rule: nonzero; opacity: 1;"  paint-order="stroke"  transform=" translate(-140.35399646918103, -131.1035)" d="M 0 0 L 280.869 0 C 295.21400000000006 26.081 302.75600000000003 55.423 302.75600000000003 85.396 C 302.75600000000003 178.16 231.20600000000002 254.517 140.39600000000002 262.207 C 14.648 251.8 -62.302 113.295 0 0" stroke-linecap="round" />
</g>
		<g transform="matrix(0.25836339131142233 0 0 -0.25836339131142233 -8.647418091730913 -1.5606957378948891)"  >
<path style="stroke: none; stroke-width: 1; stroke-dasharray: none; stroke-linecap: butt; stroke-dashoffset: 0; stroke-linejoin: miter; stroke-miterlimit: 4; fill: rgb(255,255,255); fill-rule: nonzero; opacity: 1;"  paint-order="stroke"  transform=" translate(-23.0625, 39.1055)" d="M 0 0 L -25.619 0 C -22.224 -43.691 14.387999999999998 -78.211 58.935 -78.211 C 63.289 -78.211 67.565 -77.871 71.744 -77.235 C 33.17 -71.364 3.063 -39.42 0 0" stroke-linecap="round" />
</g>
</g>
</g>
<g transform="matrix(1.9211538461538462 0 0 1.9211538461538462 639.4202918269233 730.522737396014)" id="text-logo"  >
<g style=""  paint-order="stroke"   >
		<g transform="matrix(1 0 0 1 0 0)" id="text-logo-path-0"  >
<path style="stroke: none; stroke-width: 0; stroke-dasharray: none; stroke-linecap: butt; stroke-dashoffset: 0; stroke-linejoin: miter; stroke-miterlimit: 4; fill: rgb(84,84,85); fill-rule: nonzero; opacity: 1;"  paint-order="stroke"  transform=" translate(-154.25, 17.75)" d="M 0.36 -24.71 C 0.36 -10.72 9.66 0.71 22.86 0.71 C 34.79 0.71 43.31 -7.88 43.31 -24.71 C 43.31 -38.7 35.15 -50.13 20.52 -50.13 C 9.66 -50.13 0.36 -42.46 0.36 -24.71 Z M 22.22 -15.48 C 17.82 -15.48 14.41 -19.45 14.41 -24.78 C 14.41 -31.31 17.82 -34.08 21.09 -34.08 C 26.48 -34.08 29.32 -29.82 29.32 -24.78 C 29.32 -18.6 26.27 -15.48 22.22 -15.48 Z M 64.4 -34.51 C 63.76 -35.57 62.84 -35.93 61.41 -35.93 C 55.59 -35.93 54.17 -29.89 54.17 -11.36 C 54.17 8.31 54.67 14.84 61.27 14.84 C 66.6 14.84 66.53 10.3 66.03 -0.28 C 65.96 -1.7 66.53 -2.06 67.66 -1.35 C 69.79 0 72.21 0.78 74.91 0.78 C 82.93 0.78 88.61 -5.54 88.61 -17.82 C 88.61 -27.97 83.14 -36.28 73.27 -36.28 C 70.72 -36.28 68.3 -35.57 66.17 -34.01 C 65.32 -33.37 64.97 -33.51 64.4 -34.51 Z M 71.92 -11.01 C 68.44 -11.01 65.75 -13.99 65.75 -17.82 C 65.75 -22.58 68.44 -24.64 71.07 -24.64 C 75.12 -24.64 77.32 -21.51 77.32 -17.82 C 77.32 -13.35 74.98 -11.01 71.92 -11.01 Z M 115.38 -36.35 C 106.5 -36.35 98.62 -30.74 98.62 -17.82 C 98.62 -7.53 106.5 0.78 117.65 0.78 C 123.61 0.78 129.22 -2.63 129.22 -8.38 C 129.22 -11.22 127.8 -13.06 125.53 -13.06 C 122.33 -13.06 120.77 -10.15 116.65 -10.15 C 114.03 -10.15 111.83 -11.93 110.97 -14.77 C 127.66 -12.85 128.37 -21.66 128.37 -24.85 C 128.37 -32.73 121.91 -36.35 115.38 -36.35 Z M 119 -24.78 C 119.14 -23 117.51 -21.8 115.16 -21.58 C 112.46 -21.3 110.33 -22.29 110.12 -23.86 C 109.91 -25.77 111.9 -26.84 113.96 -27.05 C 117.01 -27.41 118.78 -26.27 119 -24.78 Z M 157.69 -21.09 C 159.89 -21.09 161.38 -18.6 161.38 -13.28 C 161.38 -3.41 163.51 0.43 168.55 0.43 C 173.45 0.43 174.87 -3.62 174.87 -16.9 C 174.87 -30.03 171.25 -35.78 163.94 -35.78 C 156.77 -35.78 155.63 -30.67 154.21 -30.67 C 153.86 -30.67 153.64 -31.03 153.64 -31.6 C 153.64 -33.8 151.3 -36.35 147.25 -36.35 C 141.43 -36.35 140.15 -31.67 140.15 -18.74 C 140.15 -5.68 141.57 0.43 147.82 0.43 C 151.8 0.43 153.64 -1.99 153.64 -14.34 C 153.64 -19.31 155.13 -21.09 157.69 -21.09 Z M 200.5 -24.42 C 200.5 -42.74 201.14 -49.42 194.11 -49.42 C 187.23 -49.42 186.3 -42.6 186.3 -26.34 C 186.3 -10.86 187.23 0 198.73 0 C 209.38 0 217.12 -0.92 217.12 -8.59 C 217.12 -12.99 213.92 -14.56 208.53 -14.56 C 203.06 -14.56 200.5 -13.7 200.5 -24.42 Z M 240.97 0.78 C 243.89 0.78 246.73 -0.14 249 -2.2 C 249.92 -3.05 250.56 -2.91 251.2 -1.92 C 252.26 -0.28 253.83 0.43 255.67 0.43 C 260.64 0.43 262.06 -4.4 262.06 -17.32 C 262.06 -29.75 261 -35.57 255.67 -35.57 C 253.33 -35.57 251.77 -34.72 250.7 -33.02 C 249.99 -31.95 249.42 -31.81 248.5 -32.66 C 246.02 -34.93 242.89 -36.28 239.34 -36.28 C 231.39 -36.28 225.64 -30.03 225.64 -17.75 C 225.64 -7.53 231.18 0.78 240.97 0.78 Z M 243.25 -10.86 C 239.13 -10.86 236.93 -13.99 236.93 -17.75 C 236.93 -22.15 239.27 -24.5 242.39 -24.5 C 245.8 -24.5 248.5 -21.51 248.5 -17.75 C 248.5 -12.92 245.8 -10.86 243.25 -10.86 Z M 286.13 -2.2 C 288.47 -0.28 291.31 0.78 294.44 0.78 C 302.46 0.78 308.14 -5.54 308.14 -17.82 C 308.14 -27.97 302.67 -36.28 292.8 -36.28 C 291.03 -36.28 289.18 -35.93 287.55 -35.15 C 286.27 -34.51 285.56 -34.93 285.63 -36.42 C 285.99 -46.08 285.92 -50.34 280.81 -50.34 C 274.2 -50.34 273.71 -43.81 273.71 -24.14 C 273.71 -5.68 275.13 0.43 280.95 0.43 C 282.58 0.43 283.57 -0.07 284.14 -1.56 C 284.64 -2.77 285.21 -2.91 286.13 -2.2 Z M 291.38 -11.01 C 287.98 -11.01 285.28 -13.99 285.28 -17.82 C 285.28 -22.58 287.98 -24.64 290.6 -24.64 C 294.65 -24.64 296.85 -21.51 296.85 -17.82 C 296.85 -13.35 294.51 -11.01 291.38 -11.01 Z" stroke-linecap="round" />
</g>
</g>
</g>
</svg>